<svg fill="none" xmlns="http://www.w3.org/2000/svg" viewBox="0 0 7731 1657"><path d="m3284 457 2 16v254l-2 14c-7 3-15 2-22 2h-152c-42 0-84 8-122 25a290 290 0 0 0-182 244 316 316 0 0 0 69 242c48 60 111 98 187 109 92 14 173-12 241-75a328 328 0 0 0 106-265V3c8-4 15-3 22-3h254l21 1 1 12v1014c0 41-2 81-8 122a597 597 0 0 1-344 456 596 596 0 0 1-171 47 644 644 0 0 1-132 2 585 585 0 0 1-484-324 609 609 0 0 1-61-208c-13-117 2-230 53-337a556 556 0 0 1 505-329h202l17 1ZM4613 1342c2 24 2 267-1 284a77 77 0 0 1-10 2l-12 1h-180a557 557 0 0 1-502-292 588 588 0 0 1-73-233c-12-117 4-229 55-335a572 572 0 0 1 424-332c123-24 245-13 361 36a576 576 0 0 1 307 308 601 601 0 0 1 49 184c3 25 5 50 5 74v564l-1 23-12 2-26 1h-234c-8 0-16 1-23-3-4-8-3-16-3-24v-562a334 334 0 0 0-53-182c-41-64-97-110-170-131-107-30-201-4-281 71-60 56-92 127-99 208a300 300 0 0 0 26 160c43 91 116 144 213 166a335 335 0 0 0 73 7h144c8 1 15-1 23 3ZM1203 1626c-14 3-131 4-274 3-6 0-13 1-21-4l-1-10v-562a364 364 0 0 0-27-143 327 327 0 0 0-91-125 284 284 0 0 0-363-8 315 315 0 0 0-120 201c-10 57-7 113 14 168 37 95 106 154 204 182 28 8 57 11 87 11l148 1h20l2 3 1 2 1 10-1 264-1 6c-5 5-12 4-19 4h-94c-42-1-85 0-127-2-139-7-259-58-360-154a581 581 0 0 1-169-315 594 594 0 0 1-11-143c8-183 78-338 220-456 79-66 170-105 271-123a640 640 0 0 1 176-7 580 580 0 0 1 483 352 633 633 0 0 1 53 224l2 68v528c0 8 1 17-3 25ZM7305 1340l3 8v270l-2 8c-7 4-15 3-23 3h-172l-42-1a552 552 0 0 1-427-230 573 573 0 0 1-107-251c-23-137-6-269 56-393a569 569 0 0 1 408-314c123-26 244-18 361 30a575 575 0 0 1 319 317 609 609 0 0 1 49 201l3 64v550l-1 23c-8 5-15 4-22 4h-252c-8 0-15 1-22-3-3-8-2-16-2-24v-561a339 339 0 0 0-53-180c-40-65-95-111-169-133-97-28-186-9-265 55a314 314 0 0 0-114 204c-10 61-4 120 22 176 43 92 116 147 214 169a335 335 0 0 0 74 8h164ZM1331 457l10-1c47-2 267-1 285 2l2 11v664c0 30 3 59 11 88a215 215 0 0 0 24 55 177 177 0 0 0 102 79c53 15 106 18 158 1 86-26 137-85 154-173 3-18 3-35 3-52V485l1-26c7-5 15-3 22-3h254l21 1 1 14v666c0 56-7 111-24 164a481 481 0 0 1-357 338c-74 19-149 21-224 13a535 535 0 0 1-153-38 449 449 0 0 1-249-252 544 544 0 0 1-40-176l-3-86V482c0-8-1-16 2-25ZM5979 457v274l-1 10c-8 3-15 2-22 2h-188c-42 0-84 7-123 22a278 278 0 0 0-183 231 301 301 0 0 0 18 159c36 92 105 148 199 173a364 364 0 0 0 93 12h205l2 14v271c-9 5-17 4-24 4h-190c-25 0-50 0-74-2a554 554 0 0 1-510-421 655 655 0 0 1-20-199c4-82 22-161 57-235a534 534 0 0 1 345-291 602 602 0 0 1 168-25h230l18 1ZM6105 1626c-2-19-2-1150 0-1167 6-5 13-3 19-3h256l19 1 2 4 1 1152-1 13-11 3h-260c-8 0-16 1-25-3ZM6252 324a159 159 0 0 1-161-163c0-90 71-161 163-161 85 1 160 65 160 162a158 158 0 0 1-162 161Z" fill="#ffffff"/></svg>